Coordinates
version=1
nRows=6
nColumns=107
inDegrees=yes

Units are S.I. units (second, meters, Newtons, ...)
If the header above contains a line with 'inDegrees', this indicates whether rotational values are in degrees (yes) or radians (no).

endheader
time	sternoclavicular_r2	sternoclavicular_r3	unrotscap_r3	unrotscap_r2	acromioclavicular_r2	acromioclavicular_r3	acromioclavicular_r1	unrothum_r1	unrothum_r3	unrothum_r2	elv_angle	shoulder_elv	shoulder1_r2	shoulder_rot	elbow_flexion	pro_sup	deviation	flexion	proximal_distal_r1	proximal_distal_r3	cmc_flexion	cmc_abduction	mp_flexion	ip_flexion	mcp2_flexion	mcp2_abduction	pm2_flexion	md2_flexion	mcp3_flexion	mcp3_abduction	pm3_flexion	md3_flexion	mcp4_flexion	mcp4_abduction	pm4_flexion	md4_flexion	mcp5_flexion	mcp5_abduction	pm5_flexion	md5_flexion	bicpt_tx	bicpt_ty	bicpt_tz	bicpt2_tx	bicpt2_ty	bicpt2_tz	ptpt_tx	ptpt_ty	ptpt_tz	FCUpt_tx	FCUpt_ty	FCUpt_tz	EDCpt_tx	EDCpt_ty	EDCpt_tz	APLpt_tx	APLpt_ty	APLpt_tz	FPLpt_tx	FPLpt_ty	FPLpt_tz	FPLpt2_tx	FPLpt2_ty	FPLpt2_tz	PEC1pt2_tx	PEC1pt2_ty	PEC1pt2_tz	PEC1pt3_tx	PEC1pt3_ty	PEC1pt3_tz	PEC2pt2_tx	PEC2pt2_ty	PEC2pt2_tz	PEC2pt3_tx	PEC2pt3_ty	PEC2pt3_tz	PEC3pt2_tx	PEC3pt2_ty	PEC3pt2_tz	PEC3pt3_tx	PEC3pt3_ty	PEC3pt3_tz	DELT2pt2a_tx	DELT2pt2a_ty	DELT2pt2a_tz	DELT2pt2_tx	DELT2pt2_ty	DELT2pt2_tz	LAT1pt2_tx	LAT1pt2_ty	LAT1pt2_tz	LAT1pt3_tx	LAT1pt3_ty	LAT1pt3_tz	LAT2pt2_tx	LAT2pt2_ty	LAT2pt2_tz	LAT2pt3_tx	LAT2pt3_ty	LAT2pt3_tz	LAT3pt2_tx	LAT3pt2_ty	LAT3pt2_tz	LAT3pt3_tx	LAT3pt3_ty	LAT3pt3_tz
      1.06666667	     -0.31926303	      0.13522475	     -0.13522475	      0.31926303	     -0.06464427	      0.52243225	      0.23482970	     -0.23482970	     -0.52243225	      0.06464427	     99.59058773	     75.58836140	     -1.73818366	    -24.59744907	     28.35905803	     19.41499545	      0.00607590	     -0.99427775	      0.00821566	     -0.49713887	     -2.59445727	      4.15577153	    -30.62307512	    -29.16534712	     11.88590836	     12.47018708	     32.60199181	     10.94222303	     56.61547408	     10.31672873	     85.69472550	     66.91450628	     56.87298260	     -6.65846049	     89.10159226	     30.79878840	     15.23042582	    -13.56982290	    -12.12174744	      4.98944907	      0.00083803	     -0.03085038	     -0.00482355	      0.01605124	     -0.01790388	     -0.00937045	      0.00611545	     -0.06582760	     -0.00161398	      0.00577316	     -0.18386312	     -0.00008073	     -0.00232979	      0.00060826	      0.00017937	      0.00018939	      0.00007576	      0.00037878	      0.00024242	      0.00072726	      0.00040908	     -0.00012926	      0.00006860	      0.00008232	      0.00247762	      0.00869267	      0.00604707	     -0.00810476	      0.01956900	     -0.01856116	      0.00247762	      0.00869267	      0.00604707	      0.00054592	      0.01814122	     -0.00953254	      0.00392598	      0.00483388	      0.01591370	      0.00000000	      0.00764035	      0.00000000	     -0.00709691	     -0.03279698	     -0.00629903	      0.01628787	     -0.00057716	     -0.00505521	     -0.00088186	      0.01478174	     -0.00604707	      0.00243563	      0.02133273	     -0.01763730	     -0.00592109	      0.01280804	     -0.00541717	     -0.01234611	      0.02704386	     -0.03027736	     -0.02318045	      0.01431981	     -0.00726489	     -0.01536965	      0.03124322	     -0.03783621
      1.10000000	     -0.31764231	      0.13453829	     -0.13453829	      0.31764231	     -0.06431611	      0.51978015	      0.23363760	     -0.23363760	     -0.51978015	      0.06431611	     99.85753018	     75.20464118	     -1.74284268	    -26.24304315	     28.63150016	     19.30535393	      0.00095168	     -0.98256026	      0.00129114	     -0.49128013	     -1.80290653	      4.42706812	    -29.85316328	    -27.31634268	     13.51579058	     12.52669402	     32.02865092	     13.52294032	     51.75013499	      9.99101136	     85.06464159	     62.70648686	     50.42819840	     -5.81140283	     85.98517220	     30.73814194	     11.57036971	    -13.70817991	    -11.17897208	      4.98470336	      0.00084704	     -0.03088161	     -0.00482858	      0.01604586	     -0.01797789	     -0.00937898	      0.00612355	     -0.06582236	     -0.00160515	      0.00576282	     -0.18386476	     -0.00007825	     -0.00231664	      0.00060450	      0.00017893	      0.00019680	      0.00007872	      0.00039360	      0.00025190	      0.00075571	      0.00042509	     -0.00007796	      0.00004688	      0.00005625	      0.00246504	      0.00864854	      0.00601638	     -0.00806362	      0.01946966	     -0.01846693	      0.00246504	      0.00864854	      0.00601638	      0.00054315	      0.01804913	     -0.00948415	      0.00391134	      0.00480934	      0.01587748	      0.00000000	      0.00756246	      0.00000000	     -0.00706089	     -0.03263049	     -0.00623435	      0.01711817	     -0.00063098	     -0.00575850	     -0.00087739	      0.01470670	     -0.00601638	      0.00242326	      0.02122444	     -0.01754776	     -0.00589104	      0.01274302	     -0.00538967	     -0.01228344	      0.02690657	     -0.03012366	     -0.02306278	      0.01424711	     -0.00722801	     -0.01529162	      0.03108461	     -0.03764413
      1.13333333	     -0.31698941	      0.13426175	     -0.13426175	      0.31698941	     -0.06418391	      0.51871177	      0.23315737	     -0.23315737	     -0.51871177	      0.06418391	     99.92023048	     75.05006142	     -1.74393701	    -26.72022725	     28.80946720	     17.95422185	      0.00033640	     -0.96138972	      0.00045645	     -0.48069486	     -0.08527653	      3.65284787	    -28.99578179	    -26.26741504	     13.77211892	     12.52971614	     32.26772332	     14.52307311	     45.32094945	      9.55872902	     83.28333803	     59.78269760	     42.49849019	     -4.51242201	     79.73414092	     30.80007605	      7.85185303	    -13.79654560	    -10.67929326	      5.00458081	      0.00085293	     -0.03090201	     -0.00483187	      0.01597728	     -0.01802623	     -0.00948273	      0.00622339	     -0.06575781	     -0.00149631	      0.00563570	     -0.18388467	     -0.00004692	     -0.00215450	      0.00055845	      0.00017298	      0.00020960	      0.00008384	      0.00041921	      0.00026829	      0.00080488	      0.00045275	     -0.00000260	      0.00000214	      0.00000256	      0.00245998	      0.00863076	      0.00600401	     -0.00804704	      0.01942964	     -0.01842898	      0.00245998	      0.00863076	      0.00600401	      0.00054203	      0.01801203	     -0.00946465	      0.00390543	      0.00479946	      0.01586278	      0.00000000	      0.00753119	      0.00000000	     -0.00704637	     -0.03256342	     -0.00620838	      0.01735217	     -0.00064675	     -0.00596935	     -0.00087558	      0.01467647	     -0.00600401	      0.00241828	      0.02118081	     -0.01751170	     -0.00587893	      0.01271683	     -0.00537859	     -0.01225819	      0.02685127	     -0.03006174	     -0.02301537	      0.01421783	     -0.00721315	     -0.01526019	      0.03102072	     -0.03756676
      1.16666667	     -0.31564300	      0.13369148	     -0.13369148	      0.31564300	     -0.06391129	      0.51650854	      0.23216703	     -0.23216703	     -0.51650854	      0.06391129	    100.20688171	     74.73128571	     -1.74894002	    -28.21146927	     28.95562466	     17.12591053	     -0.00656363	     -0.93169993	     -0.00894303	     -0.46584996	      2.15222976	      2.29895767	    -27.96309002	    -24.41941328	     13.05891589	     12.42505114	     32.63697776	     14.83073525	     37.30618393	      8.89001116	     78.71010823	     54.56890262	     33.43700254	     -3.17202152	     68.05193872	     29.77713602	      3.69782075	    -13.85043387	     -9.50097792	      5.00540808	      0.00085776	     -0.03091876	     -0.00483456	      0.01593317	     -0.01806594	     -0.00954507	      0.00628459	     -0.06571824	     -0.00142958	      0.00555805	     -0.18389662	     -0.00002703	     -0.00205510	      0.00053049	      0.00016885	      0.00022630	      0.00009052	      0.00045259	      0.00028966	      0.00086898	      0.00048880	      0.00003794	     -0.00005123	     -0.00006148	      0.00244953	      0.00859411	      0.00597851	     -0.00801286	      0.01934712	     -0.01835070	      0.00244953	      0.00859411	      0.00597851	      0.00053973	      0.01793552	     -0.00942445	      0.00389321	      0.00477907	      0.01583231	      0.00000000	      0.00746693	      0.00000000	     -0.00701644	     -0.03242510	     -0.00615502	      0.01806377	     -0.00069652	     -0.00664774	     -0.00087187	      0.01461413	     -0.00597851	      0.00240801	      0.02109085	     -0.01743731	     -0.00585396	      0.01266281	     -0.00535575	     -0.01220612	      0.02673722	     -0.02993406	     -0.02291761	      0.01415744	     -0.00718251	     -0.01519537	      0.03088896	     -0.03740719
      1.20000000	     -0.31458681	      0.13324413	     -0.13324413	      0.31458681	     -0.06369743	      0.51478022	      0.23139017	     -0.23139017	     -0.51478022	      0.06369743	    100.52816114	     74.48122368	     -1.75454740	    -29.51718138	     28.84367571	     15.75763137	     -0.02845591	     -0.92091648	     -0.03928094	     -0.46045824	      5.68054609	      0.33901924	    -27.79239534	    -24.06222029	     11.33185686	     12.05264942	     32.65648095	     14.93219731	     28.33061772	      7.82949366	     67.16681741	     50.01195029	     22.12208038	     -1.94524586	     54.68004921	     25.40270445	      0.30229576	    -13.85186865	    -10.61480833	      5.06965547	      0.00085406	     -0.03090593	     -0.00483250	      0.01585687	     -0.01803553	     -0.00964594	      0.00638569	     -0.06565286	     -0.00131936	      0.00543024	     -0.18391593	      0.00000696	     -0.00189091	      0.00048478	      0.00016120	      0.00023199	      0.00009280	      0.00046399	      0.00029695	      0.00089086	      0.00050111	      0.00003858	     -0.00012409	     -0.00014891	      0.00244133	      0.00856535	      0.00595850	     -0.00798605	      0.01928238	     -0.01828929	      0.00244133	      0.00856535	      0.00595850	      0.00053792	      0.01787551	     -0.00939292	      0.00388360	      0.00476308	      0.01580822	      0.00000000	      0.00741672	      0.00000000	     -0.00699297	     -0.03231660	     -0.00611331	      0.01866243	     -0.00074065	     -0.00726515	     -0.00086895	      0.01456523	     -0.00595850	      0.00239995	      0.02102027	     -0.01737897	     -0.00583437	      0.01262044	     -0.00533783	     -0.01216528	      0.02664775	     -0.02983389	     -0.02284093	      0.01411007	     -0.00715848	     -0.01514453	      0.03078560	     -0.03728202
      1.23333333	     -0.31454373	      0.13322588	     -0.13322588	      0.31454373	     -0.06368871	      0.51470973	      0.23135848	     -0.23135848	     -0.51470973	      0.06368871	    100.45662722	     74.47102513	     -1.75329890	    -29.62271648	     29.06535447	     15.15816762	     -0.00583895	     -0.83906781	     -0.00795217	     -0.41953390	      9.80624909	     -1.38213931	    -26.70893249	    -18.19009508	      9.05141802	     12.23249150	     32.69226576	     14.35859493	     19.83883711	      6.81841725	     51.93458490	     29.62135808	     15.69617679	     -0.41847947	     33.25541128	     23.72055686	     -1.09001850	    -13.90185665	     -8.84839678	      5.00766622	      0.00086139	     -0.03093133	     -0.00483659	      0.01582210	     -0.01809575	     -0.00968931	      0.00642998	     -0.06562422	     -0.00127107	      0.00537443	     -0.18392422	      0.00002230	     -0.00181898	      0.00046494	      0.00015753	      0.00026889	      0.00010756	      0.00053778	      0.00034418	      0.00103253	      0.00058080	      0.00003294	     -0.00019174	     -0.00023009	      0.00244100	      0.00856418	      0.00595769	     -0.00798496	      0.01927974	     -0.01828679	      0.00244100	      0.00856418	      0.00595769	      0.00053785	      0.01787306	     -0.00939163	      0.00388321	      0.00476243	      0.01580724	      0.00000000	      0.00741467	      0.00000000	     -0.00699201	     -0.03231218	     -0.00611161	      0.01870986	     -0.00074424	     -0.00731593	     -0.00086883	      0.01456323	     -0.00595769	      0.00239962	      0.02101740	     -0.01737659	     -0.00583357	      0.01261871	     -0.00533709	     -0.01216361	      0.02664410	     -0.02982981	     -0.02283780	      0.01410813	     -0.00715750	     -0.01514245	      0.03078138	     -0.03727692
